<svg xmlns="http://www.w3.org/2000/svg" viewBox="0 0 100 100">
  <!-- Saw blade circle -->
  <circle cx="50" cy="50" r="45" fill="#1a1a1a"/>
  <!-- Saw teeth -->
  <g fill="#1a1a1a">
    <polygon points="50,2 53,10 47,10"/>
    <polygon points="69.5,5.4 70,13.5 64,11.5" transform="rotate(15 50 50)"/>
    <polygon points="69.5,5.4 70,13.5 64,11.5" transform="rotate(30 50 50)"/>
    <polygon points="69.5,5.4 70,13.5 64,11.5" transform="rotate(45 50 50)"/>
    <polygon points="69.5,5.4 70,13.5 64,11.5" transform="rotate(60 50 50)"/>
    <polygon points="69.5,5.4 70,13.5 64,11.5" transform="rotate(75 50 50)"/>
    <polygon points="69.5,5.4 70,13.5 64,11.5" transform="rotate(90 50 50)"/>
    <polygon points="69.5,5.4 70,13.5 64,11.5" transform="rotate(105 50 50)"/>
    <polygon points="69.5,5.4 70,13.5 64,11.5" transform="rotate(120 50 50)"/>
    <polygon points="69.5,5.4 70,13.5 64,11.5" transform="rotate(135 50 50)"/>
    <polygon points="69.5,5.4 70,13.5 64,11.5" transform="rotate(150 50 50)"/>
    <polygon points="69.5,5.4 70,13.5 64,11.5" transform="rotate(165 50 50)"/>
    <polygon points="69.5,5.4 70,13.5 64,11.5" transform="rotate(180 50 50)"/>
    <polygon points="69.5,5.4 70,13.5 64,11.5" transform="rotate(195 50 50)"/>
    <polygon points="69.5,5.4 70,13.5 64,11.5" transform="rotate(210 50 50)"/>
    <polygon points="69.5,5.4 70,13.5 64,11.5" transform="rotate(225 50 50)"/>
    <polygon points="69.5,5.4 70,13.5 64,11.5" transform="rotate(240 50 50)"/>
    <polygon points="69.5,5.4 70,13.5 64,11.5" transform="rotate(255 50 50)"/>
    <polygon points="69.5,5.4 70,13.5 64,11.5" transform="rotate(270 50 50)"/>
    <polygon points="69.5,5.4 70,13.5 64,11.5" transform="rotate(285 50 50)"/>
    <polygon points="69.5,5.4 70,13.5 64,11.5" transform="rotate(300 50 50)"/>
    <polygon points="69.5,5.4 70,13.5 64,11.5" transform="rotate(315 50 50)"/>
    <polygon points="69.5,5.4 70,13.5 64,11.5" transform="rotate(330 50 50)"/>
    <polygon points="69.5,5.4 70,13.5 64,11.5" transform="rotate(345 50 50)"/>
  </g>
  <!-- P letter as path - orange -->
  <path d="M28,34 L28,66 L35,66 L35,56 L42,56 C50,56 54,51 54,45 C54,39 50,34 42,34 Z M35,41 L41,41 C45,41 47,43 47,45 C47,47.5 45,49.5 41,49.5 L35,49.5 Z" fill="#f97316"/>
  <!-- L letter as path - white -->
  <path d="M58,34 L58,66 L76,66 L76,59 L65,59 L65,34 Z" fill="#ffffff"/>
  <!-- Center hole -->
  <circle cx="50" cy="50" r="4" fill="#0f0f0f"/>
</svg>